<?xml version="1.0"?>
<svg xmlns="http://www.w3.org/2000/svg" id="Glyph" height="512" viewBox="0 0 512 512" width="512" class=""><g><path d="m120 112a16.019 16.019 0 0 0 -16 16v256a16 16 0 0 0 32 0v-256a16.019 16.019 0 0 0 -16-16z" data-original="#000000" class="active-path" style="fill:#0880CE" data-old_color="#000000"/><path d="m152 240h208v32h-208z" data-original="#000000" class="active-path" style="fill:#0880CE" data-old_color="#000000"/><path d="m40 240a16 16 0 0 0 0 32z" data-original="#000000" class="active-path" style="fill:#0880CE" data-old_color="#000000"/><path d="m472 240v32a16 16 0 0 0 0-32z" data-original="#000000" class="active-path" style="fill:#0880CE" data-old_color="#000000"/><path d="m456 360v-208a16 16 0 0 0 -32 0v208a16 16 0 0 0 32 0z" data-original="#000000" class="active-path" style="fill:#0880CE" data-old_color="#000000"/><path d="m392 112a16.019 16.019 0 0 0 -16 16v256a16 16 0 0 0 32 0v-256a16.019 16.019 0 0 0 -16-16z" data-original="#000000" class="active-path" style="fill:#0880CE" data-old_color="#000000"/><path d="m88 360v-208a16 16 0 0 0 -32 0v208a16 16 0 0 0 32 0z" data-original="#000000" class="active-path" style="fill:#0880CE" data-old_color="#000000"/></g> </svg>
