<?xml version="1.0"?>
<svg xmlns="http://www.w3.org/2000/svg" id="Layer_1" enable-background="new 0 0 512.002 512.002" height="512" viewBox="0 0 512.002 512.002" width="512"><g><g id="XMLID_1713_"><g id="XMLID_107_"><path id="XMLID_108_" d="m290.604 48.316 63 30.834c1.369.67 2.873 1.019 4.396 1.019 30.333 0 63.176 10.824 83.672 27.575 1.786 1.459 4.021 2.257 6.328 2.257h54c5.522 0 10-4.478 10-10s-4.478-10-10-10h-50.535c-23.38-17.776-58.457-29.282-91.109-29.812l-55.355-27.093v-18.095c0-5.522-4.478-10-10-10s-10 4.478-10 10v24.334c0 3.818 2.175 7.303 5.603 8.981z" data-original="#000000" class="active-path" style="fill:#D3D3D3" data-old_color="#000000"/><path id="XMLID_133_" d="m10.001 110.001h54c2.307 0 4.542-.798 6.329-2.257 20.495-16.751 53.338-27.575 83.671-27.575 1.524 0 3.027-.349 4.396-1.019l63-30.834c3.43-1.678 5.604-5.163 5.604-8.981v-24.334c0-5.522-4.477-10-10-10s-10 4.478-10 10v18.095l-55.355 27.093c-32.653.53-67.73 12.036-91.109 29.812h-50.536c-5.523 0-10 4.478-10 10s4.477 10 10 10z" data-original="#000000" class="active-path" style="fill:#D3D3D3" data-old_color="#000000"/><path id="XMLID_134_" d="m191.852 85.489c-1.831 5.21.909 10.918 6.12 12.749l34.714 12.197c1.097.386 2.215.568 3.315.568 4.126 0 7.989-2.574 9.435-6.688 1.831-5.21-.909-10.918-6.12-12.749l-34.714-12.197c-5.21-1.832-10.919.909-12.75 6.12z" data-original="#000000" class="active-path" style="fill:#D3D3D3" data-old_color="#000000"/><path id="XMLID_136_" d="m276.001 111.004c1.1 0 2.219-.184 3.314-.568l34.715-12.197c5.211-1.831 7.951-7.539 6.12-12.749-1.83-5.212-7.541-7.948-12.749-6.12l-34.715 12.197c-5.211 1.831-7.951 7.539-6.12 12.749 1.445 4.114 5.308 6.688 9.435 6.688z" data-original="#000000" class="active-path" style="fill:#D3D3D3" data-old_color="#000000"/><path id="XMLID_137_" d="m185.329 249.334-14.578-7.178c-4.956-2.439-10.949-.401-13.389 4.555-2.439 4.954-.4 10.949 4.554 13.389l16.667 8.206c1.375.677 2.886 1.028 4.417 1.028h146c1.531 0 3.043-.352 4.417-1.028l16.667-8.206c4.955-2.439 6.994-8.434 4.555-13.389-2.438-4.953-8.434-6.994-13.389-4.555l-14.578 7.178h-60.672v-104c0-5.522-4.478-10-10-10-5.523 0-10 4.478-10 10v104z" data-original="#000000" class="active-path" style="fill:#D3D3D3" data-old_color="#000000"/><path id="XMLID_139_" d="m276.128 322.95c-5.522 0-10 4.478-10 10s4.478 10 10 10h32c5.522 0 10-4.478 10-10s-4.478-10-10-10z" data-original="#000000" class="active-path" style="fill:#D3D3D3" data-old_color="#000000"/><path id="XMLID_140_" d="m318.128 394.975c0-5.522-4.478-10-10-10h-32c-5.522 0-10 4.478-10 10s4.478 10 10 10h32c5.522 0 10-4.477 10-10z" data-original="#000000" class="active-path" style="fill:#D3D3D3" data-old_color="#000000"/><path id="XMLID_141_" d="m204.128 322.95c-5.523 0-10 4.478-10 10s4.477 10 10 10h32c5.523 0 10-4.478 10-10s-4.477-10-10-10z" data-original="#000000" class="active-path" style="fill:#D3D3D3" data-old_color="#000000"/><path id="XMLID_142_" d="m236.128 384.975h-32c-5.523 0-10 4.478-10 10s4.477 10 10 10h32c5.523 0 10-4.478 10-10s-4.477-10-10-10z" data-original="#000000" class="active-path" style="fill:#D3D3D3" data-old_color="#000000"/><path id="XMLID_143_" d="m212.795 443.457c-18.773-3.114-37.154-8.29-54.779-15.4 1.654-3.605 3.425-7.159 5.341-10.636.814-1.479 1.242-3.139 1.242-4.826l.001-52.427c0-1.844-.51-3.652-1.474-5.225-12.072-19.7-20.598-41.132-25.341-63.698-.472-2.245-1.701-4.26-3.481-5.705-28.59-23.222-48.485-55.754-56.02-91.604-.688-3.275-2.969-5.989-6.078-7.23-3.108-1.24-6.631-.845-9.386 1.055-15.937 10.991-34.583 17.938-53.926 20.091-5.489.61-9.443 5.556-8.833 11.045.61 5.488 5.556 9.437 11.044 8.832 17.903-1.992 35.301-7.501 51.025-16.091 9.932 33.789 29.744 64.262 56.833 87.164 5.131 22.627 13.743 44.18 25.635 64.151l-.001 47.107c-14.159 26.594-21.63 56.595-21.63 86.94 0 5.522 4.477 10 10 10s10-4.478 10-10c0-17.123 2.675-34.115 7.826-50.292 18.901 7.602 38.605 13.14 58.727 16.479.554.092 1.105.137 1.649.137 4.803 0 9.041-3.472 9.853-8.365.905-5.448-2.779-10.598-8.227-11.502z" data-original="#000000" class="active-path" style="fill:#D3D3D3" data-old_color="#000000"/><path id="XMLID_149_" d="m503.107 207.851c-19.343-2.152-37.99-9.1-53.926-20.091-2.755-1.899-6.276-2.295-9.387-1.055-3.107 1.241-5.389 3.955-6.077 7.23-7.535 35.85-27.43 68.382-56.02 91.604-1.78 1.445-3.01 3.46-3.481 5.705-4.742 22.565-13.269 43.996-25.342 63.698-.964 1.572-1.474 3.381-1.474 5.225l.002 52.427c0 1.688.427 3.348 1.241 4.826 1.916 3.478 3.687 7.031 5.342 10.637-17.623 7.109-36.002 12.284-54.772 15.398-5.448.904-9.133 6.054-8.229 11.502.813 4.895 5.05 8.365 9.854 8.365.543 0 1.095-.045 1.648-.137 20.121-3.339 39.823-8.876 58.72-16.478 5.151 16.178 7.826 33.169 7.826 50.292 0 5.522 4.478 10 10 10s10-4.478 10-10c0-30.346-7.472-60.346-21.631-86.94l-.002-47.107c11.894-19.974 20.505-41.525 25.636-64.151 27.089-22.902 46.9-53.374 56.833-87.164 15.724 8.59 33.122 14.099 51.024 16.091 5.486.612 10.435-3.344 11.045-8.832.614-5.489-3.342-10.434-8.83-11.045z" data-original="#000000" class="active-path" style="fill:#D3D3D3" data-old_color="#000000"/><path id="XMLID_150_" d="m107.882 192.704c-3.905 3.905-3.905 10.237 0 14.143l18.015 18.015c1.953 1.952 4.512 2.929 7.071 2.929s5.119-.977 7.071-2.929c3.905-3.905 3.905-10.237 0-14.143l-18.015-18.015c-3.906-3.904-10.237-3.904-14.142 0z" data-original="#000000" class="active-path" style="fill:#D3D3D3" data-old_color="#000000"/><path id="XMLID_151_" d="m389.977 192.704-18.015 18.015c-3.905 3.905-3.905 10.237 0 14.143 1.953 1.952 4.512 2.929 7.071 2.929s5.118-.977 7.071-2.929l18.015-18.015c3.905-3.905 3.905-10.237 0-14.143-3.905-3.904-10.235-3.904-14.142 0z" data-original="#000000" class="active-path" style="fill:#D3D3D3" data-old_color="#000000"/><path id="XMLID_153_" d="m256.001 447.001c-2.63 0-5.21 1.069-7.07 2.93-1.86 1.86-2.93 4.44-2.93 7.07s1.07 5.21 2.93 7.069c1.86 1.86 4.44 2.931 7.07 2.931s5.21-1.07 7.069-2.931c1.86-1.859 2.931-4.439 2.931-7.069s-1.07-5.21-2.931-7.07c-1.859-1.861-4.439-2.93-7.069-2.93z" data-original="#000000" class="active-path" style="fill:#D3D3D3" data-old_color="#000000"/></g></g></g> </svg>
